<svg xmlns="http://www.w3.org/2000/svg" viewBox="0 0 24 24" id="job">
  <path d="M18.9 6H17c0-1.7-1.3-3-3-3h-4C8.3 3 7 4.3 7 6H5.1C3.4 6 2 7.4 2 9.1v1c0 .9.4 1.7 1 2.3V17c0 2.2 1.8 4 4 4h10c2.2 0 4-1.8 4-4v-4.5c.6-.6 1-1.4 1-2.3v-1C22 7.4 20.6 6 18.9 6zM10 5h4c.6 0 1 .4 1 1H9c0-.6.4-1 1-1zM4 9.1C4 8.5 4.5 8 5.1 8h13.8c.6 0 1.1.5 1.1 1.1v1c0 .4-.2.8-.6 1.1-.1.1-.3.2-.4.2l-6 1.3c-.1-.4-.5-.8-1-.8s-.8.3-1 .8l-6-1.3c-.2 0-.3-.1-.4-.2h-.1c-.3-.2-.5-.6-.5-1.1v-1zM19 17c0 1.1-.9 2-2 2H7c-1.1 0-2-.9-2-2v-3.5l6 1.3v.2c0 .6.4 1 1 1s1-.4 1-1v-.2l6-1.3V17z"></path>
</svg>
